<svg xmlns="http://www.w3.org/2000/svg" xmlns:xlink="http://www.w3.org/1999/xlink" width="96" height="96" viewBox="0 0 96 96">
  <defs>
    <linearGradient id="linear-gradient" x1="0.5" x2="0.5" y2="1" gradientUnits="objectBoundingBox">
      <stop offset="0" stop-color="#045de9"/>
      <stop offset="1" stop-color="#4f93ff"/>
    </linearGradient>
  </defs>
  <g id="Group_162" data-name="Group 162" transform="translate(1473.471 -592)">
    <g id="Group_124" data-name="Group 124" transform="translate(-1473.471 592)">
      <rect id="Rectangle_62" data-name="Rectangle 62" width="96" height="96" transform="translate(0)" fill="none"/>
    </g>
    <path id="dna-solid" d="M77.385,0a5.955,5.955,0,0,1,5.953,5.971c0,11.157-5.636,20.057-12.91,27.353a129.088,129.088,0,0,1-18.1,14.441l-.465.317c-2.214,1.511-4.427,3-6.6,4.459h0l-.3.187c-1.116.746-2.214,1.474-3.311,2.22-3.888,2.612-7.59,5.168-11.031,7.743H52.7c-1.823-1.381-3.739-2.743-5.711-4.123l1.3-.877.558-.373c2.809-1.884,5.748-3.844,8.687-5.9a108.931,108.931,0,0,1,12.91,10.766C77.7,69.5,83.338,78.4,83.338,89.558a5.953,5.953,0,1,1-11.905,0H11.905A5.953,5.953,0,1,1,0,89.558C0,78.4,5.636,69.5,12.91,62.206a129.088,129.088,0,0,1,18.1-14.441c-6.474-4.459-12.891-9.2-18.1-14.441C5.636,26.028,0,17.128,0,5.971a5.953,5.953,0,1,1,11.905,0H71.433A5.955,5.955,0,0,1,77.385,0Zm-14.4,71.647H20.351a40.616,40.616,0,0,0-4.744,5.971H67.731A38.286,38.286,0,0,0,62.987,71.647ZM20.351,23.882H62.987a41.618,41.618,0,0,0,4.744-5.971H15.607A39.176,39.176,0,0,0,20.351,23.882Zm10.306,8.956c3.423,2.575,7.143,5.131,11.031,7.743,3.888-2.612,7.59-5.168,11.031-7.743H30.656Z" transform="translate(-1466.904 592)" fill="url(#linear-gradient)"/>
  </g>
</svg>
