<svg xmlns="http://www.w3.org/2000/svg" width="24" height="24" viewBox="0 0 24 24">
  <g id="Group_215" data-name="Group 215" transform="translate(0)">
    <rect id="Rectangle_91" data-name="Rectangle 91" width="24" height="24" transform="translate(0)" fill="none"/>
    <path id="email-solid" d="M2.239,64A2.239,2.239,0,0,0,.9,68.031l10.152,7.614a1.5,1.5,0,0,0,1.791,0L22.99,68.031A2.239,2.239,0,0,0,21.647,64ZM0,69.225v9.7a2.989,2.989,0,0,0,2.986,2.986H20.9a2.989,2.989,0,0,0,2.986-2.986v-9.7L13.735,76.839a2.981,2.981,0,0,1-3.583,0Z" transform="translate(0.114 -61.014)" fill="#cee2ff"/>
  </g>
</svg>
