<svg id="Group_216" data-name="Group 216" xmlns="http://www.w3.org/2000/svg" width="24" height="24" viewBox="0 0 24 24">
  <rect id="Rectangle_92" data-name="Rectangle 92" width="24" height="24" fill="none"/>
  <path id="phone-flip-solid" d="M16.248,1.132A1.869,1.869,0,0,1,18.47.044l4.125,1.125a1.88,1.88,0,0,1,1.383,1.809,21,21,0,0,1-21,21,1.88,1.88,0,0,1-1.809-1.383L.044,18.47a1.869,1.869,0,0,1,1.087-2.222l4.5-1.875a1.869,1.869,0,0,1,2.17.544L9.7,17.228A15.842,15.842,0,0,0,17.228,9.7L14.917,7.806a1.871,1.871,0,0,1-.544-2.17l1.875-4.5Z" transform="translate(0.023 0.022)" fill="#cee2ff"/>
</svg>
