<svg xmlns="http://www.w3.org/2000/svg" xmlns:xlink="http://www.w3.org/1999/xlink" width="96" height="96" viewBox="0 0 96 96">
  <defs>
    <linearGradient id="linear-gradient" x1="0.5" x2="0.5" y2="1" gradientUnits="objectBoundingBox">
      <stop offset="0" stop-color="#045de9"/>
      <stop offset="1" stop-color="#4f93ff"/>
    </linearGradient>
  </defs>
  <g id="Group_169" data-name="Group 169" transform="translate(6697 -3271)">
    <g id="Group_163" data-name="Group 163" transform="translate(-4405 2131.145)">
      <g id="Group_142" data-name="Group 142" transform="translate(-2292 1139.706)">
        <g id="Group_124" data-name="Group 124" transform="translate(0 0)">
          <rect id="Rectangle_62" data-name="Rectangle 62" width="96" height="96" transform="translate(0 0.148)" fill="none"/>
        </g>
      </g>
    </g>
    <g id="_-Product-Icons" data-name="ðŸ”-Product-Icons" transform="translate(-6691.401 3269)">
      <g id="ic_fluent_bot_24_filled" transform="translate(4.004 2)">
        <path id="_-Color" data-name="ðŸŽ¨-Color" d="M70,59.6A10.8,10.8,0,0,1,80.8,70.4V74.74A18,18,0,0,1,74.524,88.4C67.01,94.847,56.257,98,42.385,98S17.77,94.849,10.269,88.4A18,18,0,0,1,4,74.75V70.4A10.8,10.8,0,0,1,14.8,59.6ZM41.9,2.033,42.387,2a3.6,3.6,0,0,1,3.567,3.111l.033.488,0,3.6,16.8,0A10.8,10.8,0,0,1,73.584,20V41.619a10.8,10.8,0,0,1-10.8,10.8h-40.8a10.8,10.8,0,0,1-10.8-10.8V20a10.8,10.8,0,0,1,10.8-10.8l16.8,0,0-3.6A3.6,3.6,0,0,1,41.9,2.033L42.387,2ZM31.582,23.6a6,6,0,1,0,6,6A6,6,0,0,0,31.582,23.6Zm21.564,0a6,6,0,1,0,6,6A6,6,0,0,0,53.147,23.6Z" transform="translate(-4.004 -2)" fill="url(#linear-gradient)"/>
      </g>
    </g>
  </g>
</svg>
